<svg width="16" height="8" viewBox="0 0 16 8" fill="none" xmlns="http://www.w3.org/2000/svg">
<path fill-rule="evenodd" clip-rule="evenodd" d="M8.66432 7.75355C8.57707 7.83168 8.47346 7.89366 8.35941 7.93595C8.24536 7.97823 8.12311 8 7.99965 8C7.87619 8 7.75394 7.97823 7.63989 7.93595C7.52584 7.89366 7.42223 7.83168 7.33498 7.75355L0.284408 1.44421C0.195178 1.36653 0.12409 1.27376 0.0752704 1.1713C0.0264512 1.06885 0.000873591 0.958735 2.19898e-05 0.847364C-0.000829612 0.735992 0.0230618 0.625578 0.0703096 0.522533C0.117557 0.419487 0.18722 0.325863 0.275254 0.247094C0.363287 0.168325 0.467938 0.105982 0.58313 0.0636831C0.698323 0.0213841 0.821761 -2.83337e-05 0.946281 0.000690049C1.0708 0.00140843 1.19392 0.024243 1.30849 0.0678675C1.42307 0.111492 1.52681 0.175037 1.6137 0.254815L7.9996 5.96929L14.3855 0.254815C14.4724 0.174895 14.5761 0.111214 14.6907 0.0674723C14.8053 0.0237312 14.9285 0.000802573 15.0531 2.06954e-05C15.1777 -0.000761183 15.3013 0.0206189 15.4166 0.0629175C15.5319 0.105216 15.6366 0.16759 15.7247 0.246413C15.8128 0.325236 15.8825 0.418935 15.9298 0.522065C15.977 0.625194 16.0009 0.735697 16 0.847149C15.9991 0.9586 15.9734 1.06878 15.9244 1.17128C15.8755 1.27378 15.8043 1.36655 15.7149 1.44421L8.66432 7.75355Z" fill="#F6F6F6"/>
</svg>
