<svg width="16" height="8" viewBox="0 0 17 8" fill="none" xmlns="http://www.w3.org/2000/svg">
<path fill-rule="evenodd" clip-rule="evenodd" d="M14.7319 7.75943L8.33235 2.03439L1.93281 7.75943C1.7553 7.91393 1.51687 7.99971 1.26916 7.9982C1.02144 7.99668 0.78435 7.908 0.609216 7.75134C0.434082 7.59468 0.334992 7.38266 0.333394 7.16116C0.331796 6.93966 0.427819 6.7265 0.600678 6.56784L7.66622 0.246918C7.75366 0.168641 7.8575 0.106543 7.9718 0.0641753C8.0861 0.0218073 8.20862 0 8.33235 0C8.45609 0 8.57861 0.0218073 8.69291 0.0641753C8.80721 0.106543 8.91105 0.168641 8.99849 0.246918L16.0641 6.56784C16.2378 6.72636 16.3346 6.93977 16.3334 7.16171C16.3321 7.38365 16.233 7.59618 16.0575 7.75314C15.882 7.91011 15.6444 7.99881 15.3961 7.99999C15.1479 8.00117 14.9092 7.91472 14.7319 7.75943V7.75943Z" fill="#F6F6F6"/>
</svg>
